<mxfile host="app.diagrams.net" modified="2024-03-12T17:41:34.716Z" agent="Mozilla/5.0 (X11; Ubuntu; Linux x86_64; rv:123.0) Gecko/20100101 Firefox/123.0" etag="y8FgJlc-Ge3bJdTnwbon" version="24.0.2" type="github">
  <diagram name="Page-1" id="8HLR1nw6laLAGQ_7sEZU">
    <mxGraphModel dx="743" dy="423" grid="1" gridSize="10" guides="1" tooltips="1" connect="1" arrows="1" fold="1" page="1" pageScale="1" pageWidth="850" pageHeight="1100" math="0" shadow="0">
      <root>
        <mxCell id="0" />
        <mxCell id="1" parent="0" />
        <mxCell id="vOo_M3_7fQIAEqkD8ehW-6" style="edgeStyle=orthogonalEdgeStyle;rounded=0;orthogonalLoop=1;jettySize=auto;html=1;entryX=0;entryY=0.5;entryDx=0;entryDy=0;" edge="1" parent="1" source="vOo_M3_7fQIAEqkD8ehW-1" target="vOo_M3_7fQIAEqkD8ehW-2">
          <mxGeometry relative="1" as="geometry" />
        </mxCell>
        <mxCell id="vOo_M3_7fQIAEqkD8ehW-1" value="Input Tags" style="rounded=0;whiteSpace=wrap;html=1;" vertex="1" parent="1">
          <mxGeometry x="40" y="400" width="120" height="60" as="geometry" />
        </mxCell>
        <mxCell id="vOo_M3_7fQIAEqkD8ehW-7" style="edgeStyle=orthogonalEdgeStyle;rounded=0;orthogonalLoop=1;jettySize=auto;html=1;entryX=0;entryY=0.5;entryDx=0;entryDy=0;" edge="1" parent="1" source="vOo_M3_7fQIAEqkD8ehW-2" target="vOo_M3_7fQIAEqkD8ehW-3">
          <mxGeometry relative="1" as="geometry" />
        </mxCell>
        <mxCell id="vOo_M3_7fQIAEqkD8ehW-2" value="Search articles" style="rounded=0;whiteSpace=wrap;html=1;" vertex="1" parent="1">
          <mxGeometry x="200" y="340" width="120" height="60" as="geometry" />
        </mxCell>
        <mxCell id="vOo_M3_7fQIAEqkD8ehW-8" style="edgeStyle=orthogonalEdgeStyle;rounded=0;orthogonalLoop=1;jettySize=auto;html=1;entryX=0.5;entryY=0;entryDx=0;entryDy=0;" edge="1" parent="1" source="vOo_M3_7fQIAEqkD8ehW-3" target="vOo_M3_7fQIAEqkD8ehW-4">
          <mxGeometry relative="1" as="geometry" />
        </mxCell>
        <mxCell id="vOo_M3_7fQIAEqkD8ehW-3" value="MDS model" style="rounded=0;whiteSpace=wrap;html=1;" vertex="1" parent="1">
          <mxGeometry x="390" y="340" width="120" height="60" as="geometry" />
        </mxCell>
        <mxCell id="vOo_M3_7fQIAEqkD8ehW-9" style="edgeStyle=orthogonalEdgeStyle;rounded=0;orthogonalLoop=1;jettySize=auto;html=1;entryX=1;entryY=0.5;entryDx=0;entryDy=0;" edge="1" parent="1" source="vOo_M3_7fQIAEqkD8ehW-4" target="vOo_M3_7fQIAEqkD8ehW-5">
          <mxGeometry relative="1" as="geometry" />
        </mxCell>
        <mxCell id="vOo_M3_7fQIAEqkD8ehW-4" value="Summary" style="rounded=0;whiteSpace=wrap;html=1;" vertex="1" parent="1">
          <mxGeometry x="390" y="460" width="120" height="60" as="geometry" />
        </mxCell>
        <mxCell id="vOo_M3_7fQIAEqkD8ehW-5" value="Evaluate result " style="rounded=0;whiteSpace=wrap;html=1;" vertex="1" parent="1">
          <mxGeometry x="200" y="460" width="120" height="60" as="geometry" />
        </mxCell>
        <mxCell id="vOo_M3_7fQIAEqkD8ehW-12" value="" style="shape=curlyBracket;whiteSpace=wrap;html=1;rounded=1;labelPosition=left;verticalLabelPosition=middle;align=right;verticalAlign=middle;rotation=-90;" vertex="1" parent="1">
          <mxGeometry x="250" y="200" width="20" height="240" as="geometry" />
        </mxCell>
        <mxCell id="vOo_M3_7fQIAEqkD8ehW-16" value="" style="group" vertex="1" connectable="0" parent="1">
          <mxGeometry x="140" y="270" width="60" height="30" as="geometry" />
        </mxCell>
        <mxCell id="vOo_M3_7fQIAEqkD8ehW-15" value="" style="rounded=1;whiteSpace=wrap;html=1;" vertex="1" parent="vOo_M3_7fQIAEqkD8ehW-16">
          <mxGeometry width="60" height="30" as="geometry" />
        </mxCell>
        <mxCell id="vOo_M3_7fQIAEqkD8ehW-13" value="arcticle 1" style="text;html=1;align=center;verticalAlign=middle;resizable=0;points=[];autosize=1;strokeColor=none;fillColor=none;" vertex="1" parent="vOo_M3_7fQIAEqkD8ehW-16">
          <mxGeometry x="-4.997142857142856" width="70" height="30" as="geometry" />
        </mxCell>
        <mxCell id="vOo_M3_7fQIAEqkD8ehW-22" value="" style="group" vertex="1" connectable="0" parent="1">
          <mxGeometry x="220" y="270" width="65.00285714285714" height="30" as="geometry" />
        </mxCell>
        <mxCell id="vOo_M3_7fQIAEqkD8ehW-23" value="" style="rounded=1;whiteSpace=wrap;html=1;" vertex="1" parent="vOo_M3_7fQIAEqkD8ehW-22">
          <mxGeometry width="60" height="30" as="geometry" />
        </mxCell>
        <mxCell id="vOo_M3_7fQIAEqkD8ehW-24" value="arcticle 2" style="text;html=1;align=center;verticalAlign=middle;resizable=0;points=[];autosize=1;strokeColor=none;fillColor=none;" vertex="1" parent="vOo_M3_7fQIAEqkD8ehW-22">
          <mxGeometry x="-4.997142857142856" width="70" height="30" as="geometry" />
        </mxCell>
        <mxCell id="vOo_M3_7fQIAEqkD8ehW-25" value="" style="group" vertex="1" connectable="0" parent="1">
          <mxGeometry x="320" y="270" width="70.00285714285714" height="30" as="geometry" />
        </mxCell>
        <mxCell id="vOo_M3_7fQIAEqkD8ehW-26" value="" style="rounded=1;whiteSpace=wrap;html=1;" vertex="1" parent="vOo_M3_7fQIAEqkD8ehW-25">
          <mxGeometry width="60" height="30" as="geometry" />
        </mxCell>
        <mxCell id="vOo_M3_7fQIAEqkD8ehW-27" value="arcticle 10" style="text;html=1;align=center;verticalAlign=middle;resizable=0;points=[];autosize=1;strokeColor=none;fillColor=none;" vertex="1" parent="vOo_M3_7fQIAEqkD8ehW-25">
          <mxGeometry x="-9.997142857142856" width="80" height="30" as="geometry" />
        </mxCell>
        <mxCell id="vOo_M3_7fQIAEqkD8ehW-28" value="" style="endArrow=none;dashed=1;html=1;dashPattern=1 3;strokeWidth=2;rounded=0;" edge="1" parent="1">
          <mxGeometry width="50" height="50" relative="1" as="geometry">
            <mxPoint x="290" y="290" as="sourcePoint" />
            <mxPoint x="310" y="290" as="targetPoint" />
            <Array as="points">
              <mxPoint x="290" y="290" />
            </Array>
          </mxGeometry>
        </mxCell>
      </root>
    </mxGraphModel>
  </diagram>
</mxfile>
